<?xml version="1.0" encoding="iso-8859-1"?>
<!-- Generator: Adobe Illustrator 27.4.1, SVG Export Plug-In . SVG Version: 6.00 Build 0)  -->
<svg version="1.1" id="&#x30EC;&#x30A4;&#x30E4;&#x30FC;_2"
	 xmlns="http://www.w3.org/2000/svg" xmlns:xlink="http://www.w3.org/1999/xlink" x="0px" y="0px" viewBox="0 0 500 500"
	 style="enable-background:new 0 0 500 500;" xml:space="preserve">
<path style="fill:none;stroke:#DDE34D;stroke-width:14;stroke-linecap:round;stroke-miterlimit:10;" d="M43.944,223.329
	c0,0-6.832,1.698-9.531-6.206c-6.062-17.752,11.106-20.009,11.106-20.009l19.786-1.438l-0.872,46.358
	c0,18.046-15.484,14.152-22.142,11.644c-0.479-0.18-0.825,0.473-0.409,0.77c17.664,12.63,23.812-11.804,23.812-11.804l2.122-47.507
	l23.207,53.764l23.556-51.779l5.147,0.796l-1.669,44.865c4.953,34.987,25.92,3.659,25.92,3.659"/>
<path style="fill:none;stroke:#DDE34D;stroke-width:14;stroke-linecap:round;stroke-miterlimit:10;" d="M172.935,221.693
	c0,0,4.948-2.812-5.736-2.746c-20.084,0.124-19.378,18.462-19.378,18.462c15.42,44.295,31.516-0.758,31.516-0.758l4.591-22.421
	l-1.21,30.358c5.951,25.316,21.369,1.481,21.369,1.481"/>
<path style="fill:none;stroke:#DDE34D;stroke-width:14;stroke-linecap:round;stroke-miterlimit:10;" d="M234.657,226.637
	C234.657,226.637,236.147,228.055,234.657,226.637c-20.774-19.77-27.33,8.928-27.33,8.928
	c12.809,40.591,40.758,10.448,40.758,10.448"/>
<path style="fill:none;stroke:#DDE34D;stroke-width:14;stroke-linecap:round;stroke-miterlimit:10;" d="M277.603,222.41
	C277.603,222.41,285.146,226.153,277.603,222.41c-20.753-10.298-26.583,9.369-26.583,9.369l-1.671,7.176
	c16.073,35.285,29.504,7.762,29.504,7.762l3.781-12.949l2.052-20.127l-0.333,28.772c7.393,30.012,23.083,2.879,23.083,2.879
	c4.025-6.639,4.73-21.048,4.73-21.048l-7.36-10.007c14.391,14.391,31.216,7.052,31.216,7.052l-5.399,18.811
	c0,32.627,24.692,7.128,24.692,7.128"/>
<path style="fill:none;stroke:#DDE34D;stroke-width:14;stroke-linecap:round;stroke-miterlimit:10;" d="M382.317,219.272
	c-30.35-2.344-23.271,24.647-23.271,24.647c16.211,25.581,31.722,3.685,31.722,3.685c5.971-14.009-4.349-27.136-4.349-27.136
	l4.913-0.837c11.387,11.387,24.865,0.079,24.865,0.079l0.412,43.133c-1.186-36.208,18.342-44.331,18.342-44.331
	c11.008,4.492,12.362,10.367,12.362,10.367l-1.483,18.539c13.14,22.283,24.858-5.684,24.858-5.684"/>
</svg>
